<svg width="740" height="226" viewBox="0 0 740 226" fill="none" xmlns="http://www.w3.org/2000/svg">
<path d="M55.3813 175.194C55.7245 178.97 59.9801 181.005 63.1343 178.902L98.5685 155.279L66.6679 59.5773C65.3143 55.5164 69.357 51.743 73.3151 53.3728L180.959 97.6969C182.498 98.3306 184.252 98.157 185.637 97.2338L225.848 70.4264L48.729 29.5528C45.4124 28.7875 42.3171 31.4877 42.6252 34.8775L55.3813 175.194Z" fill="#7482FF"/>
<path d="M269.035 50.5111C268.692 46.7358 264.436 44.7008 261.282 46.8036L225.848 70.4264L257.748 166.128C259.102 170.189 255.059 173.963 251.101 172.333L143.457 128.009C141.918 127.375 140.164 127.549 138.78 128.472L98.5685 155.279L275.687 196.153C279.004 196.918 282.099 194.218 281.791 190.828L269.035 50.5111Z" fill="#7482FF"/>
<path d="M324 28.7965H333.188L349.886 58.0672V28.7965H358.05V70.7255H349.288L332.164 40.9428V70.7255H324V28.7965Z" fill="#7482FF"/>
<path d="M366.242 28.8534H395.968V36.2208H374.946V45.8639H393.351V53.146H374.946V70.7255H366.242V28.8534Z" fill="#7482FF"/>
<path d="M400.035 50.1023C400.035 42.7823 401.998 37.1406 405.924 33.1771C409.337 29.7257 413.68 28 418.952 28C426.006 28 431.165 30.3136 434.426 34.9408C436.228 37.5388 437.195 40.1463 437.328 42.7633H428.567C427.998 40.7532 427.268 39.2361 426.376 38.212C424.783 36.3915 422.422 35.4812 419.293 35.4812C416.107 35.4812 413.595 36.7708 411.755 39.3499C409.916 41.91 408.996 45.5415 408.996 50.2446C408.996 54.9476 409.963 58.4749 411.897 60.8264C413.851 63.1589 416.325 64.3252 419.322 64.3252C422.394 64.3252 424.736 63.3201 426.348 61.31C427.239 60.229 427.979 58.6076 428.567 56.4457H437.243C436.484 61.016 434.54 64.7329 431.411 67.5965C428.301 70.46 424.309 71.8918 419.435 71.8918C413.405 71.8918 408.664 69.9575 405.213 66.0889C401.761 62.2013 400.035 56.8724 400.035 50.1023Z" fill="#7482FF"/>
<path d="M324 91.9359H354.465V97.0562H329.518V109.743H352.588V114.579H329.518V128.745H354.892V133.723H324V91.9359Z" fill="#7482FF"/>
<path d="M378.36 128.887C380.275 128.887 381.849 128.688 383.082 128.29C385.282 127.55 387.083 126.128 388.487 124.023C389.605 122.335 390.411 120.173 390.904 117.537C391.189 115.963 391.331 114.503 391.331 113.156C391.331 107.979 390.298 103.959 388.231 101.095C386.182 98.2319 382.873 96.8001 378.303 96.8001H368.262V128.887H378.36ZM362.572 91.9359H379.498C385.244 91.9359 389.7 93.9745 392.867 98.0518C395.693 101.731 397.106 106.443 397.106 112.189C397.106 116.627 396.271 120.638 394.602 124.222C391.663 130.556 386.609 133.723 379.441 133.723H362.572V91.9359Z" fill="#7482FF"/>
<path d="M410.56 91.9359V117.765C410.56 120.799 411.129 123.321 412.267 125.331C413.955 128.365 416.8 129.883 420.801 129.883C425.599 129.883 428.861 128.242 430.586 124.961C431.515 123.179 431.98 120.78 431.98 117.765V91.9359H437.726V115.404C437.726 120.543 437.034 124.497 435.65 127.266C433.108 132.31 428.311 134.832 421.256 134.832C414.201 134.832 409.413 132.31 406.891 127.266C405.507 124.497 404.814 120.543 404.814 115.404V91.9359H410.56Z" fill="#7482FF"/>
<path d="M464.124 90.7981C469.415 90.7981 473.52 92.1919 476.441 94.9796C479.361 97.7673 480.983 100.934 481.305 104.481H475.787C475.161 101.788 473.909 99.6542 472.032 98.0802C470.173 96.5062 467.556 95.7192 464.181 95.7192C460.066 95.7192 456.737 97.1699 454.196 100.071C451.674 102.954 450.413 107.382 450.413 113.356C450.413 118.248 451.551 122.221 453.826 125.274C456.121 128.309 459.535 129.826 464.067 129.826C468.239 129.826 471.415 128.223 473.596 125.018C474.753 123.331 475.616 121.112 476.185 118.362H481.703C481.21 122.762 479.579 126.45 476.811 129.427C473.492 133.012 469.016 134.804 463.384 134.804C458.529 134.804 454.452 133.334 451.152 130.395C446.81 126.507 444.638 120.505 444.638 112.388C444.638 106.225 446.269 101.171 449.531 97.2268C453.058 92.941 457.923 90.7981 464.124 90.7981Z" fill="#7482FF"/>
<path d="M510.064 116.598L503.72 98.1371L496.979 116.598H510.064ZM500.762 91.9359H507.162L522.324 133.723H516.123L511.884 121.207H495.357L490.834 133.723H485.031L500.762 91.9359Z" fill="#7482FF"/>
<path d="M553.557 91.9359V96.9139H539.477V133.723H533.731V96.9139H519.65V91.9359H553.557Z" fill="#7482FF"/>
<path d="M560.043 91.9359H565.76V133.723H560.043V91.9359Z" fill="#7482FF"/>
<path d="M593.011 90.7981C600.388 90.7981 605.85 93.1686 609.396 97.9095C612.165 101.607 613.549 106.339 613.549 112.104C613.549 118.343 611.966 123.53 608.799 127.664C605.082 132.519 599.782 134.946 592.898 134.946C586.469 134.946 581.415 132.822 577.736 128.574C574.455 124.478 572.815 119.301 572.815 113.043C572.815 107.391 574.218 102.556 577.025 98.5353C580.628 93.3772 585.957 90.7981 593.011 90.7981ZM593.58 129.883C598.568 129.883 602.171 128.1 604.39 124.535C606.627 120.951 607.746 116.835 607.746 112.189C607.746 107.278 606.457 103.324 603.878 100.327C601.318 97.3311 597.809 95.833 593.353 95.833C589.029 95.833 585.502 97.3217 582.771 100.299C580.04 103.257 578.675 107.628 578.675 113.412C578.675 118.04 579.841 121.946 582.174 125.132C584.525 128.299 588.327 129.883 593.58 129.883Z" fill="#7482FF"/>
<path d="M620.319 91.9359H627.004L648.111 125.786V91.9359H653.487V133.723H647.144L625.724 99.9007V133.723H620.319V91.9359Z" fill="#7482FF"/>
<path d="M349.032 179.652L342.689 161.191L335.947 179.652H349.032ZM339.73 154.99H346.131L361.292 196.777H355.091L350.853 184.261H334.326L329.803 196.777H324L339.73 154.99Z" fill="#7482FF"/>
<path d="M366.441 154.99H373.126L394.233 188.84V154.99H399.609V196.777H393.265L371.846 162.955V196.777H366.441V154.99Z" fill="#7482FF"/>
<path d="M424.584 191.941C426.5 191.941 428.074 191.742 429.306 191.344C431.506 190.604 433.308 189.182 434.711 187.077C435.83 185.389 436.636 183.227 437.129 180.591C437.413 179.017 437.555 177.557 437.555 176.211C437.555 171.033 436.522 167.013 434.455 164.15C432.407 161.286 429.098 159.854 424.527 159.854H414.486V191.941H424.584ZM408.797 154.99H425.722C431.468 154.99 435.925 157.029 439.091 161.106C441.917 164.785 443.33 169.497 443.33 175.243C443.33 179.681 442.496 183.692 440.827 187.276C437.887 193.61 432.833 196.777 425.665 196.777H408.797V154.99Z" fill="#7482FF"/>
<path d="M470.553 183.294C470.685 185.664 471.245 187.589 472.231 189.068C474.108 191.837 477.417 193.221 482.158 193.221C484.282 193.221 486.217 192.918 487.961 192.311C491.337 191.135 493.025 189.03 493.025 185.996C493.025 183.72 492.314 182.099 490.891 181.132C489.45 180.183 487.193 179.359 484.121 178.657L478.46 177.377C474.762 176.542 472.145 175.623 470.609 174.618C467.954 172.873 466.627 170.265 466.627 166.795C466.627 163.04 467.926 159.959 470.524 157.55C473.122 155.142 476.801 153.938 481.561 153.938C485.942 153.938 489.659 154.999 492.712 157.123C495.784 159.228 497.32 162.604 497.32 167.25H492.001C491.716 165.012 491.109 163.296 490.18 162.101C488.454 159.921 485.524 158.83 481.39 158.83C478.053 158.83 475.654 159.532 474.194 160.935C472.733 162.338 472.003 163.969 472.003 165.828C472.003 167.876 472.857 169.374 474.563 170.322C475.682 170.929 478.214 171.688 482.158 172.598L488.018 173.935C490.844 174.58 493.025 175.461 494.561 176.58C497.216 178.534 498.543 181.369 498.543 185.086C498.543 189.713 496.855 193.022 493.48 195.013C490.123 197.004 486.217 198 481.76 198C476.564 198 472.496 196.673 469.557 194.018C466.618 191.382 465.176 187.807 465.233 183.294H470.553Z" fill="#7482FF"/>
<path d="M506.252 154.99H525.055C528.771 154.99 531.768 156.042 534.043 158.147C536.319 160.234 537.457 163.173 537.457 166.966C537.457 170.227 536.442 173.072 534.413 175.499C532.384 177.908 529.265 179.112 525.055 179.112H511.913V196.777H506.252V154.99ZM531.739 166.994C531.739 163.922 530.601 161.836 528.326 160.736C527.074 160.148 525.358 159.854 523.177 159.854H511.913V174.333H523.177C525.718 174.333 527.776 173.793 529.35 172.712C530.943 171.631 531.739 169.725 531.739 166.994Z" fill="#7482FF"/>
<path d="M562.603 153.852C569.98 153.852 575.441 156.223 578.988 160.964C581.756 164.662 583.141 169.393 583.141 175.158C583.141 181.397 581.557 186.584 578.39 190.718C574.673 195.573 569.373 198 562.489 198C556.06 198 551.007 195.876 547.328 191.628C544.047 187.532 542.406 182.355 542.406 176.097C542.406 170.446 543.81 165.61 546.616 161.589C550.22 156.431 555.548 153.852 562.603 153.852ZM563.172 192.937C568.159 192.937 571.762 191.154 573.981 187.589C576.219 184.005 577.338 179.89 577.338 175.243C577.338 170.332 576.048 166.378 573.469 163.381C570.909 160.385 567.401 158.887 562.944 158.887C558.621 158.887 555.093 160.376 552.362 163.353C549.632 166.311 548.266 170.683 548.266 176.467C548.266 181.094 549.433 185 551.765 188.186C554.117 191.353 557.919 192.937 563.172 192.937Z" fill="#7482FF"/>
<path d="M609.339 174.134C611.994 174.134 614.09 173.603 615.626 172.541C617.181 171.479 617.958 169.564 617.958 166.795C617.958 163.818 616.877 161.789 614.716 160.708C613.559 160.139 612.013 159.854 610.079 159.854H596.254V174.134H609.339ZM590.594 154.99H609.937C613.123 154.99 615.749 155.455 617.816 156.384C621.742 158.166 623.704 161.457 623.704 166.255C623.704 168.758 623.183 170.806 622.14 172.399C621.116 173.992 619.675 175.272 617.816 176.239C619.447 176.903 620.67 177.775 621.486 178.856C622.32 179.937 622.785 181.691 622.879 184.118L623.079 189.722C623.135 191.315 623.268 192.5 623.477 193.278C623.818 194.605 624.425 195.459 625.297 195.838V196.777H618.357C618.167 196.416 618.015 195.952 617.901 195.383C617.788 194.814 617.693 193.714 617.617 192.083L617.276 185.114C617.143 182.383 616.128 180.553 614.232 179.624C613.151 179.112 611.454 178.856 609.14 178.856H596.254V196.777H590.594V154.99Z" fill="#7482FF"/>
<path d="M661.395 154.99V159.968H647.314V196.777H641.568V159.968H627.488V154.99H661.395Z" fill="#7482FF"/>
<path d="M670.299 183.294C670.431 185.664 670.991 187.589 671.977 189.068C673.854 191.837 677.163 193.221 681.904 193.221C684.028 193.221 685.963 192.918 687.707 192.311C691.083 191.135 692.771 189.03 692.771 185.996C692.771 183.72 692.06 182.099 690.637 181.132C689.196 180.183 686.939 179.359 683.867 178.657L678.206 177.377C674.509 176.542 671.892 175.623 670.355 174.618C667.701 172.873 666.373 170.265 666.373 166.795C666.373 163.04 667.672 159.959 670.27 157.55C672.868 155.142 676.547 153.938 681.307 153.938C685.688 153.938 689.405 154.999 692.458 157.123C695.53 159.228 697.066 162.604 697.066 167.25H691.747C691.462 165.012 690.855 163.296 689.926 162.101C688.2 159.921 685.271 158.83 681.136 158.83C677.799 158.83 675.4 159.532 673.94 160.935C672.479 162.338 671.749 163.969 671.749 165.828C671.749 167.876 672.603 169.374 674.309 170.322C675.428 170.929 677.96 171.688 681.904 172.598L687.764 173.935C690.59 174.58 692.771 175.461 694.307 176.58C696.962 178.534 698.289 181.369 698.289 185.086C698.289 189.713 696.601 193.022 693.226 195.013C689.869 197.004 685.963 198 681.506 198C676.31 198 672.242 196.673 669.303 194.018C666.364 191.382 664.922 187.807 664.979 183.294H670.299Z" fill="#7482FF"/>
<rect x="270.343" y="28.3429" width="11.3143" height="11.3143" rx="5.65714" stroke="white" stroke-width="0.685714"/>
<path d="M273.889 37.0733V30.9266H275.873C276.309 30.9266 276.673 31.0057 276.965 31.1637C277.259 31.3198 277.48 31.5369 277.628 31.815C277.778 32.0911 277.853 32.4083 277.853 32.7664C277.853 33.1246 277.778 33.4407 277.628 33.7149C277.48 33.989 277.26 34.2031 276.968 34.3571C276.676 34.5112 276.314 34.5882 275.882 34.5882H274.192V34.075H275.867C276.187 34.075 276.453 34.022 276.665 33.9159C276.879 33.8099 277.038 33.6588 277.142 33.4627C277.248 33.2667 277.301 33.0346 277.301 32.7664C277.301 32.4983 277.248 32.2642 277.142 32.0641C277.036 31.862 276.876 31.706 276.662 31.5959C276.45 31.4859 276.182 31.4309 275.858 31.4309H274.45V37.0733H273.889ZM276.599 34.3001L278.112 37.0733H277.463L275.966 34.3001H276.599Z" fill="white"/>
</svg>
